<?xml version="1.0" encoding="UTF-8" standalone="no"?>
<!DOCTYPE svg PUBLIC "-//W3C//DTD SVG 1.0//EN" "http://www.w3.org/TR/2001/REC-SVG-20010904/DTD/svg10.dtd">
<svg xmlns="http://www.w3.org/2000/svg" version="1.0" viewBox="0 0 800 300">
<path fill="#ffffff" d="
  M 129.45 190.27
  Q 132.81 194.69 131.44 199.94
  Q 130.63 203.08 127.60 205.52
  Q 124.47 208.04 120.74 209.72
  Q 110.70 214.22 100.18 217.27
  Q 92.52 219.49 80.79 222.15
  Q 70.12 224.56 59.26 226.05
  Q 52.24 227.01 45.32 226.21
  Q 37.51 225.32 32.15 222.28
  Q 21.40 216.17 19.00 202.50
  Q 17.67 194.90 18.09 188.26
  Q 18.88 175.60 21.33 163.17
  Q 26.78 135.55 35.53 108.80
  Q 39.30 97.30 44.73 86.49
  Q 47.38 81.21 51.43 76.93
  Q 55.53 72.60 59.70 74.58
  Q 62.87 76.10 64.55 80.05
  Q 66.25 84.07 65.19 88.44
  Q 57.82 118.69 49.05 148.56
  Q 45.33 161.24 42.88 174.23
  Q 41.10 183.63 43.25 191.50
  Q 44.55 196.28 48.62 198.30
  Q 51.43 199.69 56.58 199.49
  Q 63.94 199.21 72.00 197.00
  Q 92.88 191.28 114.19 187.43
  Q 118.09 186.72 122.06 186.65
  Q 124.36 186.60 126.29 187.55
  Q 128.02 188.40 129.45 190.27
  Z"
/>
<path fill="#ffffff" d="
  M 338.44 78.69
  Q 341.14 74.75 344.87 74.28
  Q 348.39 73.84 351.12 76.96
  Q 355.27 81.70 353.62 88.83
  Q 351.12 99.67 343.56 127.06
  Q 336.88 151.25 333.50 164.25
  Q 331.81 170.72 330.82 178.48
  Q 329.71 187.23 332.81 193.94
  Q 334.35 197.26 337.81 198.66
  Q 340.15 199.61 344.29 199.51
  Q 352.16 199.32 360.50 197.00
  Q 376.09 192.66 399.75 188.00
  Q 405.81 186.81 408.48 186.54
  Q 417.38 185.63 420.00 194.00
  Q 420.62 195.97 420.17 199.17
  Q 419.80 201.79 418.09 203.69
  Q 415.17 206.94 411.08 208.84
  Q 399.56 214.20 387.39 217.64
  Q 380.01 219.74 368.57 222.22
  Q 359.46 224.20 349.50 225.75
  Q 339.10 227.37 329.28 225.36
  Q 312.99 222.02 308.50 206.50
  Q 306.16 198.42 306.40 189.59
  Q 306.55 184.15 308.30 172.82
  Q 309.50 165.01 311.50 155.75
  Q 316.02 134.80 322.29 114.31
  Q 325.90 102.48 330.91 91.17
  Q 332.82 86.87 338.44 78.69
  Z"
/>
<path fill="#ffffff" d="
  M 636.49 78.54
  Q 639.49 82.11 639.63 86.60
  Q 639.70 88.80 638.64 90.29
  Q 637.49 91.91 635.50 92.84
  A 0.85 0.85 78.4 0 0 635.02 93.57
  L 633.96 119.44
  Q 633.91 120.81 635.12 120.17
  Q 636.99 119.19 639.22 118.20
  Q 641.56 117.17 643.51 116.71
  Q 654.48 114.08 662.11 120.63
  Q 666.85 124.70 669.55 132.13
  Q 671.96 138.75 672.16 145.88
  Q 672.33 152.07 672.03 156.61
  Q 671.68 162.03 669.74 167.21
  Q 668.97 169.27 667.42 170.62
  Q 665.94 171.90 663.81 172.28
  Q 659.77 173.00 657.31 169.94
  Q 655.00 167.06 654.04 161.15
  Q 653.52 157.94 653.01 154.73
  Q 652.59 152.06 652.36 148.24
  Q 652.00 142.09 650.89 136.03
  Q 650.38 133.24 649.39 132.27
  Q 647.57 130.47 644.44 132.69
  Q 637.82 137.37 635.23 144.46
  Q 634.04 147.71 634.17 153.32
  Q 634.38 162.41 634.48 171.50
  Q 634.53 176.43 630.55 179.25
  Q 624.44 183.57 619.56 177.94
  Q 618.00 176.13 616.98 172.19
  Q 613.70 159.45 613.69 146.25
  Q 613.67 129.44 615.50 107.50
  Q 616.59 94.41 621.04 83.29
  Q 622.54 79.54 624.57 78.03
  Q 627.26 76.02 631.00 76.01
  Q 634.36 76.00 636.49 78.54
  Z"
/>
<path fill="#ffffff" d="
  M 536.89 104.64
  Q 541.70 98.97 548.01 94.99
  Q 558.56 88.34 571.50 89.25
  Q 577.75 89.69 582.97 92.25
  Q 587.23 94.35 589.42 96.46
  Q 592.25 99.21 593.31 103.44
  Q 594.16 106.80 593.35 109.84
  Q 592.44 113.25 589.75 114.54
  Q 587.54 115.61 585.03 114.74
  Q 583.83 114.32 581.36 112.19
  Q 573.25 105.19 562.69 109.69
  Q 556.26 112.42 551.47 118.44
  Q 541.58 130.84 542.78 145.46
  Q 543.73 156.98 550.17 163.58
  Q 558.17 171.77 572.21 168.79
  Q 582.75 166.56 592.55 162.03
  Q 594.78 161.00 597.13 160.33
  Q 599.78 159.57 601.84 160.45
  Q 605.51 162.01 605.59 165.83
  Q 605.66 169.12 602.90 172.59
  Q 600.40 175.74 597.06 177.81
  Q 588.13 183.36 577.97 186.43
  Q 567.13 189.70 558.28 188.47
  Q 547.91 187.02 539.78 180.59
  Q 532.28 174.67 527.55 165.42
  Q 520.38 151.40 523.08 134.67
  Q 525.81 117.70 536.89 104.64
  Z"
/>
<path fill="#ffffff" d="
  M 233.65 96.10
  Q 238.92 100.83 237.25 108.00
  Q 236.14 112.76 231.75 114.50
  Q 228.07 115.96 224.16 114.45
  Q 221.43 113.40 219.47 111.85
  Q 217.16 110.01 216.38 107.24
  Q 215.40 103.74 217.20 99.93
  Q 219.04 96.05 222.75 94.25
  Q 228.49 91.47 233.65 96.10
  Z"
/>
<path fill="#ffffff" d="
  M 184.50 143.19
  Q 185.92 145.09 186.93 142.95
  Q 188.95 138.69 189.87 134.08
  Q 192.46 121.23 195.00 112.25
  Q 195.72 109.70 197.62 106.09
  Q 199.58 102.37 203.28 101.62
  Q 206.87 100.89 209.33 103.04
  Q 211.39 104.83 211.09 107.92
  Q 211.09 107.93 210.04 112.71
  Q 204.81 136.57 198.30 160.10
  Q 196.56 166.37 194.43 168.82
  Q 190.70 173.09 184.75 172.47
  Q 181.14 172.10 177.85 169.72
  Q 174.59 167.37 172.56 164.19
  Q 163.33 149.71 160.89 132.06
  Q 160.20 127.05 160.24 125.43
  Q 160.32 122.03 161.85 118.83
  Q 162.80 116.87 164.53 115.83
  Q 166.01 114.94 168.25 114.96
  Q 173.74 115.00 176.23 119.17
  Q 176.53 119.68 179.23 127.37
  Q 181.49 133.83 181.75 135.75
  Q 182.36 140.31 184.50 143.19
  Z"
/>
<path fill="#ffffff" d="
  M 420.52 155.19
  Q 417.83 160.21 414.67 164.92
  Q 412.40 168.29 409.14 170.45
  Q 405.84 172.63 401.96 172.87
  Q 394.07 173.36 389.44 166.31
  Q 385.32 160.04 384.53 152.45
  Q 383.84 145.84 385.21 138.08
  Q 387.23 126.58 394.94 118.19
  Q 402.29 110.18 413.63 110.36
  Q 415.35 110.38 418.81 110.96
  Q 421.40 111.39 424.00 111.69
  A 1.00 0.98 24.7 0 0 424.84 111.39
  Q 428.14 108.01 429.31 107.56
  Q 433.94 105.80 436.67 108.51
  Q 438.60 110.41 438.79 114.53
  Q 439.01 119.27 438.10 123.92
  Q 436.42 132.47 436.41 132.67
  Q 435.80 139.57 437.22 146.45
  Q 438.03 150.36 441.96 153.70
  Q 443.50 155.01 443.83 157.01
  Q 444.50 161.05 441.86 163.53
  Q 439.74 165.52 436.14 165.65
  Q 429.71 165.89 425.56 160.69
  Q 422.19 156.46 421.07 155.13
  A 0.33 0.33 38.8 0 0 420.52 155.19
  Z
  M 406.85 131.11
  Q 404.01 134.66 402.81 139.06
  Q 400.90 146.04 401.52 153.25
  Q 401.66 154.88 402.46 156.36
  Q 403.46 158.19 404.92 156.71
  Q 406.91 154.69 408.10 152.14
  Q 413.39 140.78 417.04 128.79
  A 0.52 0.51 -72.8 0 0 416.71 128.15
  Q 410.78 126.22 406.85 131.11
  Z"
/>
<path fill="#ffffff" d="
  M 472.50 115.69
  Q 478.18 112.45 481.19 110.94
  Q 494.02 104.48 503.94 111.68
  Q 508.76 115.18 511.09 121.31
  Q 513.45 127.51 513.25 134.25
  Q 513.02 142.24 512.15 152.64
  Q 511.39 161.81 511.38 161.87
  Q 510.82 165.25 509.39 168.37
  Q 508.22 170.93 505.96 172.04
  Q 500.31 174.84 494.81 170.94
  Q 492.56 169.34 491.59 166.57
  Q 490.96 164.77 490.99 161.36
  Q 491.06 151.94 492.88 142.68
  Q 494.67 133.59 493.75 129.00
  Q 493.00 125.27 488.50 125.75
  Q 483.71 126.26 479.81 130.83
  Q 472.47 139.45 472.14 150.49
  Q 472.08 152.71 472.77 158.47
  Q 473.51 164.56 473.25 166.50
  Q 472.32 173.48 465.75 174.75
  Q 462.21 175.44 459.35 172.65
  Q 455.04 168.44 453.59 162.54
  Q 450.24 148.91 451.50 132.25
  Q 452.18 123.31 455.54 116.48
  Q 457.57 112.35 460.04 110.93
  Q 463.86 108.74 468.17 112.36
  Q 470.00 113.90 471.71 115.59
  A 0.66 0.66 51.9 0 0 472.50 115.69
  Z"
/>
<path fill="#ffffff" d="
  M 132.17 127.10
  A 1.55 1.54 14.4 0 0 131.07 125.26
  Q 126.88 124.10 123.94 126.01
  Q 121.58 127.53 120.31 131.39
  Q 119.00 135.37 118.50 141.00
  Q 117.97 146.92 120.81 151.44
  Q 122.48 154.09 126.01 154.70
  Q 130.59 155.50 134.95 153.87
  Q 140.37 151.85 145.65 149.50
  Q 149.96 147.58 152.29 150.30
  Q 154.01 152.31 153.52 155.70
  Q 152.74 161.16 148.31 164.31
  Q 142.12 168.72 134.39 170.23
  Q 126.42 171.78 119.64 170.04
  Q 109.55 167.44 104.06 157.94
  Q 100.83 152.34 100.95 144.50
  Q 101.13 132.92 106.58 123.55
  Q 112.30 113.73 120.83 110.01
  Q 131.79 105.23 143.50 113.50
  Q 150.28 118.29 150.58 125.88
  Q 150.80 131.64 147.50 136.56
  Q 144.24 141.43 138.44 143.95
  Q 134.44 145.69 130.10 144.95
  Q 124.02 143.91 123.53 137.67
  Q 123.00 130.96 129.54 129.43
  Q 131.74 128.91 132.17 127.10
  Z"
/>
<path fill="#ffffff" d="
  M 703.54 154.13
  Q 708.19 156.01 713.25 154.25
  Q 717.20 152.88 721.79 150.68
  Q 725.99 148.68 727.58 148.62
  Q 730.48 148.51 732.05 151.08
  Q 733.21 152.99 732.71 155.61
  Q 731.36 162.73 724.31 166.31
  Q 717.18 169.94 709.73 170.70
  Q 701.77 171.51 695.06 168.64
  Q 687.22 165.27 683.34 157.96
  Q 678.95 149.67 680.56 138.53
  Q 682.12 127.71 689.11 118.60
  Q 691.39 115.64 694.30 113.37
  Q 697.19 111.12 700.67 109.87
  Q 712.75 105.54 723.44 114.31
  Q 728.79 118.70 729.64 124.76
  Q 730.44 130.47 727.20 135.77
  Q 723.99 141.03 717.81 143.81
  Q 714.98 145.09 712.14 145.30
  Q 708.96 145.55 706.55 144.23
  Q 702.16 141.83 702.50 135.75
  Q 702.67 132.76 704.81 131.06
  Q 705.98 130.14 708.80 129.09
  Q 710.29 128.54 710.87 127.92
  Q 712.06 126.64 710.58 125.58
  Q 709.83 125.04 708.66 124.98
  Q 700.31 124.57 698.75 133.75
  Q 697.55 140.83 697.54 142.50
  Q 697.53 146.56 699.22 150.05
  Q 700.64 152.96 703.54 154.13
  Z"
/>
<path fill="#ffffff" d="
  M 762.41 159.39
  Q 757.97 154.66 753.04 150.45
  Q 749.99 147.85 747.57 144.70
  Q 744.92 141.27 743.91 137.75
  Q 741.84 130.58 745.19 123.94
  Q 751.70 111.00 766.00 109.75
  Q 774.02 109.05 780.06 114.69
  Q 785.06 119.35 783.31 125.58
  Q 782.15 129.70 779.24 131.34
  Q 775.43 133.50 771.04 129.30
  Q 768.96 127.31 766.22 128.16
  Q 764.44 128.72 763.01 130.14
  Q 761.56 131.58 761.14 133.29
  Q 760.39 136.34 763.11 138.64
  Q 771.07 145.37 776.44 152.56
  Q 780.58 158.11 779.75 165.50
  Q 778.79 174.03 770.44 178.38
  Q 759.04 184.32 747.01 180.91
  Q 743.19 179.83 741.78 177.86
  Q 739.74 175.02 741.69 170.94
  Q 742.71 168.79 746.34 167.38
  Q 752.24 165.10 758.19 162.95
  Q 760.69 162.06 762.43 160.12
  A 0.55 0.52 44.6 0 0 762.41 159.39
  Z"
/>
<path fill="#ffffff" d="
  M 228.82 122.44
  Q 231.03 123.73 231.34 126.26
  Q 232.17 133.03 230.94 140.12
  Q 229.85 146.45 229.86 148.97
  Q 229.89 155.58 231.31 162.09
  Q 232.83 169.09 232.00 173.50
  Q 231.60 175.64 229.56 176.91
  Q 227.92 177.92 225.75 177.86
  Q 220.65 177.71 217.69 172.81
  Q 214.11 166.89 212.96 161.26
  Q 210.42 148.73 213.00 135.75
  Q 213.85 131.47 215.52 127.76
  Q 217.54 123.25 220.21 121.75
  Q 223.97 119.63 228.82 122.44
  Z"
/>
</svg>
